<svg id="svg" version="1.1" xmlns="http://www.w3.org/2000/svg" xmlns:xlink="http://www.w3.org/1999/xlink" width="400" height="400" viewBox="0, 0, 400,400"><g id="svgg"><path id="path0" d="M160.422 215.417 C 159.132 217.809,155.059 226.321,153.703 229.459 C 152.737 231.693,152.812 232.657,154.202 235.893 L 155.404 238.691 154.545 243.262 C 152.184 255.835,151.655 261.043,151.434 273.916 C 150.925 303.579,156.924 329.653,170.666 357.500 C 176.437 369.195,187.297 387.135,188.116 386.326 C 188.213 386.230,188.136 383.530,187.945 380.326 C 186.091 349.276,190.188 306.083,199.171 261.980 C 199.629 259.732,199.965 257.871,199.918 257.845 C 198.601 257.117,197.829 256.323,196.914 254.753 C 196.163 253.466,195.549 252.798,195.051 252.725 C 193.743 252.535,186.653 260.222,180.347 268.667 C 179.183 270.225,178.079 271.650,177.893 271.833 C 177.454 272.266,177.343 272.458,189.406 251.884 C 195.087 242.195,199.607 234.147,199.451 233.998 C 199.295 233.850,192.717 230.138,184.833 225.750 C 176.950 221.361,168.588 216.697,166.252 215.385 C 163.915 214.073,161.941 213.000,161.864 213.000 C 161.787 213.000,161.138 214.088,160.422 215.417 M243.167 214.949 C 242.250 215.460,238.500 217.426,234.833 219.318 C 231.167 221.211,226.967 223.393,225.500 224.168 C 224.033 224.942,220.583 226.741,217.833 228.165 C 209.908 232.268,206.000 234.373,206.000 234.537 C 206.000 234.621,211.710 243.173,218.689 253.541 C 229.549 269.677,232.503 274.205,231.600 273.333 C 231.505 273.242,229.354 270.767,226.819 267.833 C 220.202 260.177,213.682 253.031,212.960 252.645 C 212.429 252.361,212.170 252.576,211.188 254.111 C 210.555 255.100,209.559 256.312,208.973 256.805 L 207.909 257.700 209.117 263.267 C 214.254 286.940,218.677 315.600,220.804 339.000 C 221.989 352.040,222.167 356.224,222.167 371.040 L 222.167 386.246 224.278 383.089 C 252.090 341.496,263.993 281.999,252.503 242.011 C 251.300 237.822,251.275 238.160,253.061 234.265 L 254.085 232.029 252.654 228.431 C 250.260 222.413,245.801 213.971,245.036 214.010 C 244.925 214.016,244.083 214.439,243.167 214.949 " stroke="none" fill="#f3f3f3" fill-rule="evenodd"></path><path id="path1" d="M193.500 8.503 C 170.092 12.264,152.361 22.673,150.278 33.875 L 149.898 35.916 147.866 36.127 C 141.376 36.803,138.304 41.318,135.186 54.765 C 131.675 69.905,131.006 90.118,133.639 101.500 C 134.191 103.883,134.736 106.658,134.851 107.667 L 135.060 109.500 133.856 110.140 C 124.305 115.215,126.145 132.192,137.474 143.528 C 140.314 146.370,144.133 148.667,146.019 148.667 C 147.124 148.667,146.633 147.297,150.800 162.008 C 156.407 181.804,159.413 189.159,163.893 194.040 C 167.295 197.747,168.108 200.527,167.366 205.922 C 166.663 211.039,166.647 211.069,164.254 211.833 C 163.106 212.200,162.188 212.642,162.214 212.815 C 162.240 212.988,170.372 217.653,180.285 223.182 C 190.198 228.712,198.643 233.458,199.053 233.730 C 199.794 234.222,199.762 234.284,190.845 249.529 C 179.499 268.928,178.444 270.785,179.585 269.351 C 188.048 258.719,193.796 252.542,195.057 252.726 C 195.548 252.797,196.168 253.475,196.914 254.753 C 197.844 256.349,198.438 256.959,199.929 257.855 C 199.981 257.887,199.799 259.020,199.524 260.373 C 193.031 292.340,189.356 319.615,187.965 346.167 C 187.583 353.463,187.751 380.666,188.203 384.750 C 188.517 387.582,188.107 387.238,184.425 381.583 C 155.173 336.665,145.258 290.697,154.546 243.061 L 155.412 238.622 154.338 236.294 C 152.296 231.862,152.277 231.945,158.068 220.047 C 159.885 216.314,161.298 213.187,161.208 213.097 C 160.743 212.631,158.075 214.127,152.907 217.749 C 141.653 225.638,135.083 230.967,128.581 237.478 L 124.451 241.614 119.309 244.116 C 108.368 249.439,100.621 251.807,78.167 256.690 C 56.491 261.403,49.156 264.209,43.360 270.005 C 38.009 275.356,36.829 278.979,35.326 294.667 C 33.821 310.384,30.646 332.764,27.002 353.333 C 26.271 357.458,25.418 362.279,25.106 364.047 C 24.364 368.250,24.679 369.419,27.218 371.898 C 37.546 381.981,81.112 388.738,153.000 391.406 C 168.196 391.971,226.458 391.966,242.000 391.400 C 329.993 388.193,382.486 380.056,387.829 368.795 C 388.609 367.151,388.294 365.306,382.354 336.754 C 378.525 318.350,375.592 299.100,374.359 284.279 C 373.007 268.040,366.225 263.764,335.833 259.988 C 306.959 256.401,295.144 252.139,284.512 241.475 C 278.442 235.387,271.980 230.323,262.000 223.832 C 257.094 220.641,245.915 213.974,245.749 214.140 C 245.673 214.216,246.234 215.303,246.994 216.556 C 249.320 220.385,254.000 230.769,254.000 232.099 C 254.000 232.330,253.475 233.614,252.833 234.953 C 251.444 237.852,251.423 238.271,252.494 241.785 C 262.258 273.838,255.831 321.657,236.358 361.837 C 230.518 373.889,220.614 390.051,221.910 385.417 C 222.336 383.895,222.198 356.681,221.734 350.667 C 220.213 330.938,218.313 315.192,214.983 294.706 C 212.947 282.181,209.198 262.791,208.038 258.788 C 207.766 257.849,207.836 257.667,208.721 257.013 C 209.263 256.612,210.221 255.480,210.849 254.497 C 211.478 253.515,212.173 252.599,212.395 252.462 C 212.880 252.162,216.263 255.681,223.799 264.322 C 229.791 271.193,231.512 273.070,231.142 272.333 C 230.920 271.892,215.709 249.146,208.582 238.597 C 207.131 236.450,206.033 234.549,206.142 234.374 C 206.250 234.198,211.475 231.394,217.753 228.143 C 224.030 224.892,230.217 221.675,231.500 220.995 C 232.783 220.314,236.369 218.442,239.468 216.833 L 245.103 213.908 242.664 213.289 C 241.322 212.948,240.169 212.613,240.101 212.545 C 240.033 212.477,239.983 210.114,239.990 207.294 C 240.009 199.823,240.705 197.087,243.351 194.072 C 247.196 189.690,249.458 182.759,252.838 165.000 C 255.851 149.167,256.504 146.829,258.006 146.499 C 262.660 145.476,268.446 137.731,270.952 129.167 C 274.049 118.585,271.931 110.068,265.466 107.108 C 264.476 106.655,263.667 106.156,263.667 105.998 C 263.667 105.841,264.129 103.039,264.695 99.773 L 265.723 93.833 265.179 81.667 C 263.931 53.730,262.541 46.976,256.158 37.820 C 242.837 18.713,236.385 13.652,220.952 10.204 C 212.321 8.275,199.758 7.497,193.500 8.503 " stroke="none" fill="#040404" fill-rule="evenodd"></path><path id="path2" d="" stroke="none" fill="#949494" fill-rule="evenodd"></path><path id="path3" d="M151.103 277.500 C 151.105 278.600,151.167 279.010,151.242 278.411 C 151.316 277.812,151.314 276.912,151.238 276.411 C 151.162 275.910,151.101 276.400,151.103 277.500 " stroke="none" fill="#545454" fill-rule="evenodd"></path><path id="path4" d="" stroke="none" fill="#747474" fill-rule="evenodd"></path></g></svg>